<svg width="9" height="17" viewBox="0 0 9 17" fill="none" xmlns="http://www.w3.org/2000/svg">
<path d="M8.79309 10.2586V6.74135C8.79309 6.57721 8.66412 6.44824 8.49999 6.44824C8.33585 6.44824 8.20688 6.57721 8.20688 6.74135V10.2586C8.20688 12.3572 6.49516 14.0689 4.39654 14.0689C2.29793 14.0689 0.586206 12.3572 0.586206 10.2586V6.74135C0.586206 6.57721 0.457241 6.44824 0.293103 6.44824C0.128965 6.44824 0 6.57721 0 6.74135V10.2586C0 12.5858 1.81724 14.491 4.10344 14.6434V16.4138H1.46551C1.30138 16.4138 1.17241 16.5427 1.17241 16.7069C1.17241 16.871 1.30138 17 1.46551 17H7.32757C7.49171 17 7.62068 16.871 7.62068 16.7069C7.62068 16.5427 7.49171 16.4138 7.32757 16.4138H4.68965V14.6434C6.97585 14.491 8.79309 12.58 8.79309 10.2586Z" fill="black"/>
<path d="M4.39648 12.8966C5.85027 12.8966 7.03441 11.7124 7.03441 10.2586V2.63793C7.03441 1.18414 5.85027 0 4.39648 0C2.94268 0 1.75854 1.18414 1.75854 2.63793V10.2586C1.75854 11.7124 2.94268 12.8966 4.39648 12.8966ZM2.34475 2.63793C2.34475 1.50655 3.2651 0.586207 4.39648 0.586207C5.52786 0.586207 6.4482 1.50655 6.4482 2.63793V10.2586C6.4482 11.39 5.52786 12.3103 4.39648 12.3103C3.2651 12.3103 2.34475 11.39 2.34475 10.2586V2.63793Z" fill="black"/>
<path d="M3.06574 6.68851C3.14781 6.68851 3.21229 6.62402 3.21229 6.54195V3.02471C3.21229 2.24506 3.8454 1.60609 4.63091 1.60609C4.71298 1.60609 4.77747 1.54161 4.77747 1.45954C4.77747 1.37747 4.71298 1.31299 4.63091 1.31299C3.68712 1.31299 2.91919 2.08092 2.91919 3.02471V6.54195C2.91919 6.62402 2.98367 6.68851 3.06574 6.68851Z" fill="black"/>
</svg>
