<svg width="17" height="13" viewBox="0 0 17 13" fill="none" xmlns="http://www.w3.org/2000/svg">
<path d="M12.423 1C13.5128 1 13.7307 2.08974 13.7307 2.52564C13.7307 3.17949 13.0769 3.83333 11.9871 3.83333C10.8974 3.83333 9.80766 3.83333 8.71792 3.83333C7.84612 3.83333 7.62817 4.55983 7.62817 4.92308" stroke="black" stroke-width="0.5" stroke-linecap="round"/>
<rect x="0.25" y="5.1731" width="16.5" height="7.34615" rx="1.75" fill="white" stroke="black" stroke-width="0.5"/>
<rect x="1.30762" y="6.23071" width="0.871795" height="0.871795" fill="black"/>
<rect x="1.30762" y="6.23071" width="0.871795" height="0.871795" fill="black"/>
<rect x="1.30762" y="8.84619" width="0.871795" height="0.871795" fill="black"/>
<rect x="4.79468" y="6.23071" width="0.871795" height="0.871795" fill="black"/>
<rect x="5.6665" y="7.53857" width="0.871795" height="0.871795" fill="black"/>
<rect x="4.79468" y="8.84619" width="0.871795" height="0.871795" fill="black"/>
<rect x="3.9231" y="10.1538" width="9.58974" height="0.871795" fill="black"/>
<rect x="8.28198" y="6.23071" width="0.871795" height="0.871795" fill="black"/>
<rect x="9.15381" y="7.53857" width="0.871795" height="0.871795" fill="black"/>
<rect x="8.28198" y="8.84619" width="0.871795" height="0.871795" fill="black"/>
<rect x="11.7693" y="6.23071" width="0.871795" height="0.871795" fill="black"/>
<rect x="12.6411" y="7.53857" width="0.871795" height="0.871795" fill="black"/>
<rect x="11.7693" y="8.84619" width="0.871795" height="0.871795" fill="black"/>
<rect x="3.05127" y="6.23071" width="0.871795" height="0.871795" fill="black"/>
<rect x="2.17944" y="7.53857" width="0.871795" height="0.871795" fill="black"/>
<rect x="3.9231" y="7.53857" width="0.871795" height="0.871795" fill="black"/>
<rect x="3.05127" y="8.84619" width="0.871795" height="0.871795" fill="black"/>
<rect x="2.17944" y="10.1538" width="0.871795" height="0.871795" fill="black"/>
<rect x="6.53833" y="6.23071" width="0.871795" height="0.871795" fill="black"/>
<rect x="7.41016" y="7.53857" width="0.871795" height="0.871795" fill="black"/>
<rect x="6.53833" y="8.84619" width="0.871795" height="0.871795" fill="black"/>
<rect x="10.0256" y="6.23071" width="0.871795" height="0.871795" fill="black"/>
<rect x="10.8975" y="7.53857" width="0.871795" height="0.871795" fill="black"/>
<rect x="10.0256" y="8.84619" width="0.871795" height="0.871795" fill="black"/>
<rect x="13.5127" y="6.23071" width="0.871795" height="0.871795" fill="black"/>
<rect x="14.3845" y="7.53857" width="0.871795" height="0.871795" fill="black"/>
<rect x="13.5127" y="8.84619" width="0.871795" height="0.871795" fill="black"/>
<rect x="14.3845" y="10.1538" width="0.871795" height="0.871795" fill="black"/>
<rect x="15.2563" y="6.23071" width="0.871795" height="0.871795" fill="black"/>
<rect x="15.2563" y="8.84619" width="0.871795" height="0.871795" fill="black"/>
</svg>
