<svg width="18" height="22" viewBox="0 0 18 22" fill="none" xmlns="http://www.w3.org/2000/svg">
<path d="M6.44434 16.4414V16.2803C6.44434 15.8962 6.49967 15.5413 6.61035 15.2158C6.72103 14.8903 6.87891 14.6087 7.08398 14.3711C7.29232 14.1335 7.54134 13.9495 7.83105 13.8193C8.12077 13.6859 8.44303 13.6191 8.79785 13.6191C9.15592 13.6191 9.47982 13.6859 9.76953 13.8193C10.0592 13.9495 10.3083 14.1335 10.5166 14.3711C10.7249 14.6087 10.8844 14.8903 10.9951 15.2158C11.1058 15.5413 11.1611 15.8962 11.1611 16.2803V16.4414C11.1611 16.8255 11.1058 17.1803 10.9951 17.5059C10.8844 17.8281 10.7249 18.1081 10.5166 18.3457C10.3115 18.5833 10.0641 18.7689 9.77441 18.9023C9.4847 19.0326 9.16243 19.0977 8.80762 19.0977C8.44954 19.0977 8.12565 19.0326 7.83594 18.9023C7.54622 18.7689 7.2972 18.5833 7.08887 18.3457C6.88053 18.1081 6.72103 17.8281 6.61035 17.5059C6.49967 17.1803 6.44434 16.8255 6.44434 16.4414ZM7.02539 16.2803V16.4414C7.02539 16.7311 7.06445 17.0062 7.14258 17.2666C7.2207 17.5238 7.33464 17.7533 7.48438 17.9551C7.63411 18.1536 7.81966 18.3099 8.04102 18.4238C8.26237 18.5378 8.5179 18.5947 8.80762 18.5947C9.09408 18.5947 9.34635 18.5378 9.56445 18.4238C9.78581 18.3099 9.97135 18.1536 10.1211 17.9551C10.2708 17.7533 10.3831 17.5238 10.458 17.2666C10.5361 17.0062 10.5752 16.7311 10.5752 16.4414V16.2803C10.5752 15.9938 10.5361 15.722 10.458 15.4648C10.3831 15.2077 10.2692 14.9782 10.1162 14.7764C9.96647 14.5745 9.78092 14.415 9.55957 14.2979C9.33822 14.1807 9.08431 14.1221 8.79785 14.1221C8.51139 14.1221 8.25749 14.1807 8.03613 14.2979C7.81803 14.415 7.63249 14.5745 7.47949 14.7764C7.32975 14.9782 7.21582 15.2077 7.1377 15.4648C7.06283 15.722 7.02539 15.9938 7.02539 16.2803ZM15.8486 13.7168H16.3906V18.9072C16.3906 19.3662 16.3027 19.7601 16.127 20.0889C15.9544 20.4176 15.7087 20.6699 15.3896 20.8457C15.0739 21.0215 14.7012 21.1094 14.2715 21.1094C14.0534 21.1094 13.8288 21.0752 13.5977 21.0068C13.3698 20.9417 13.1533 20.8408 12.9482 20.7041C12.7464 20.5706 12.5739 20.4046 12.4307 20.2061L12.7578 19.8496C12.9727 20.11 13.2021 20.3005 13.4463 20.4209C13.6904 20.5446 13.9541 20.6064 14.2373 20.6064C14.5726 20.6064 14.8558 20.5397 15.0869 20.4062C15.3213 20.2728 15.4987 20.0807 15.6191 19.8301C15.7428 19.5794 15.8047 19.2783 15.8047 18.9268V14.8789L15.8486 13.7168ZM12.1377 16.4121V16.3096C12.1377 15.8994 12.1833 15.5299 12.2744 15.2012C12.3688 14.8691 12.5039 14.5859 12.6797 14.3516C12.8555 14.1139 13.0687 13.9333 13.3193 13.8096C13.5732 13.6826 13.8597 13.6191 14.1787 13.6191C14.4847 13.6191 14.7565 13.6696 14.9941 13.7705C15.2318 13.8714 15.4368 14.0163 15.6094 14.2051C15.7819 14.3939 15.9202 14.6185 16.0244 14.8789C16.1318 15.1393 16.21 15.429 16.2588 15.748V17.0518C16.2197 17.3512 16.1481 17.6263 16.0439 17.877C15.9398 18.1243 15.8014 18.3408 15.6289 18.5264C15.4564 18.7087 15.248 18.8503 15.0039 18.9512C14.763 19.0488 14.4847 19.0977 14.1689 19.0977C13.8532 19.0977 13.57 19.0326 13.3193 18.9023C13.0687 18.7721 12.8555 18.5882 12.6797 18.3506C12.5039 18.1097 12.3688 17.8249 12.2744 17.4961C12.1833 17.1673 12.1377 16.806 12.1377 16.4121ZM12.7236 16.3096V16.4121C12.7236 16.7214 12.7546 17.0078 12.8164 17.2715C12.8783 17.5352 12.9727 17.7646 13.0996 17.96C13.2266 18.1553 13.3877 18.3083 13.583 18.4189C13.7783 18.5296 14.0078 18.585 14.2715 18.585C14.6068 18.585 14.8883 18.5215 15.1162 18.3945C15.3441 18.2643 15.5247 18.0934 15.6582 17.8818C15.7917 17.667 15.8893 17.4326 15.9512 17.1787V15.6602C15.9154 15.4876 15.86 15.3118 15.7852 15.1328C15.7135 14.9538 15.6126 14.7894 15.4824 14.6396C15.3555 14.4867 15.1927 14.3646 14.9941 14.2734C14.7988 14.179 14.5612 14.1318 14.2812 14.1318C14.0143 14.1318 13.7816 14.1872 13.583 14.2979C13.3877 14.4085 13.2266 14.5632 13.0996 14.7617C12.9727 14.957 12.8783 15.1865 12.8164 15.4502C12.7546 15.7139 12.7236 16.0003 12.7236 16.3096Z" fill="black"/>
<line x1="0.25" x2="0.25" y2="17" stroke="black" stroke-width="0.5"/>
<line x1="0.25" y1="2" x2="0.25" y2="19" stroke="black" stroke-width="0.5"/>
<line x1="15.25" x2="15.25" y2="8" stroke="black" stroke-width="0.5"/>
<line x1="6" y1="19.25" y2="19.25" stroke="black" stroke-width="0.5"/>
<line x1="12" y1="3.25" x2="4" y2="3.25" stroke="black" stroke-width="0.5"/>
<line x1="12" y1="5.25" x2="4" y2="5.25" stroke="black" stroke-width="0.5"/>
<line x1="12" y1="8.25" x2="4" y2="8.25" stroke="black" stroke-width="0.5"/>
<line x1="15" y1="0.25" y2="0.25" stroke="black" stroke-width="0.5"/>
</svg>
