<svg width="20" height="20" viewBox="0 0 20 20" fill="none" xmlns="http://www.w3.org/2000/svg">
<path d="M9.35048 1.625C9.63916 1.125 10.3608 1.125 10.6495 1.625L17.5777 13.625C17.8664 14.125 17.5056 14.75 16.9282 14.75H3.0718C2.49445 14.75 2.1336 14.125 2.42228 13.625L9.35048 1.625Z" fill="white" stroke="black" stroke-width="0.5"/>
<path d="M10.4209 5.89062L10.3867 11.0176H9.84961L9.81543 5.89062H10.4209ZM9.75195 12.6533C9.75195 12.5426 9.78613 12.4499 9.85449 12.375C9.92611 12.2969 10.0254 12.2578 10.1523 12.2578C10.276 12.2578 10.3737 12.2969 10.4453 12.375C10.5202 12.4499 10.5576 12.5426 10.5576 12.6533C10.5576 12.7607 10.5202 12.8535 10.4453 12.9316C10.3737 13.0065 10.276 13.0439 10.1523 13.0439C10.0254 13.0439 9.92611 13.0065 9.85449 12.9316C9.78613 12.8535 9.75195 12.7607 9.75195 12.6533Z" fill="black"/>
</svg>
