<svg width="17" height="15" viewBox="0 0 17 15" fill="none" xmlns="http://www.w3.org/2000/svg">
<path d="M14.4729 4.68755H14.2982V0.338639C14.2982 0.151639 14.1466 0 13.9596 0H3.04041C2.85341 0 2.70177 0.151639 2.70177 0.338639V4.68755H2.52706C1.13365 4.68755 0 5.82117 0 7.21464V12.0415C0 12.2285 0.151639 12.3801 0.338639 12.3801H2.70177V14.4797C2.70177 14.6667 2.85341 14.8184 3.04041 14.8184H13.9596C14.1466 14.8184 14.2982 14.6667 14.2982 14.4797V12.3801H16.6614C16.8484 12.3801 17 12.2285 17 12.0415V7.21464C17 5.82117 15.8663 4.68755 14.4729 4.68755ZM3.37908 0.677277H13.6209V4.68755H3.37908V0.677277ZM13.6209 14.1411H3.37908V10.1255H13.6209V14.1411ZM16.3227 11.7028H14.2982V10.1255H15.1187C15.3057 10.1255 15.4573 9.97386 15.4573 9.78686C15.4573 9.59986 15.3057 9.44822 15.1187 9.44822H1.88136C1.69436 9.44822 1.54272 9.59986 1.54272 9.78686C1.54272 9.97386 1.69436 10.1255 1.88136 10.1255H2.70184V11.7028H0.677277V7.21464C0.677277 6.19468 1.50709 5.36486 2.52706 5.36486H14.4729C15.4929 5.36486 16.3227 6.19468 16.3227 7.21464V11.7028H16.3227Z" fill="black"/>
</svg>
