<svg width="9" height="10" viewBox="0 0 9 10" fill="none" xmlns="http://www.w3.org/2000/svg">
<path d="M3.08594 0.202148L3.27637 0.758789C2.889 0.879232 2.62207 1.0957 2.47559 1.4082C2.3291 1.71745 2.25586 2.07227 2.25586 2.47266V3.4834C2.25586 3.80892 2.18913 4.10514 2.05566 4.37207C1.92546 4.63574 1.71712 4.8457 1.43066 5.00195C1.14746 5.1582 0.77474 5.23633 0.3125 5.23633V4.64062C0.680339 4.64062 0.94401 4.53646 1.10352 4.32812C1.26628 4.11979 1.34766 3.83822 1.34766 3.4834V2.47266C1.34766 2.13086 1.39974 1.81185 1.50391 1.51562C1.61133 1.21615 1.79036 0.954102 2.04102 0.729492C2.29492 0.501628 2.64323 0.325846 3.08594 0.202148ZM3.27637 9.22559L3.08594 9.78711C2.64323 9.66016 2.29492 9.48438 2.04102 9.25977C1.79036 9.03516 1.61133 8.77311 1.50391 8.47363C1.39974 8.17741 1.34766 7.8584 1.34766 7.5166V6.51074C1.34766 6.27311 1.31185 6.06803 1.24023 5.89551C1.16862 5.72298 1.05632 5.58952 0.90332 5.49512C0.753581 5.39746 0.556641 5.34863 0.3125 5.34863V4.75293C0.77474 4.75293 1.14746 4.83105 1.43066 4.9873C1.71712 5.14355 1.92546 5.35514 2.05566 5.62207C2.18913 5.88574 2.25586 6.18197 2.25586 6.51074V7.5166C2.25586 7.78353 2.28678 8.03092 2.34863 8.25879C2.41374 8.48665 2.51953 8.68359 2.66602 8.84961C2.81576 9.01888 3.01921 9.14421 3.27637 9.22559ZM5.9668 0.758789L6.15723 0.202148C6.60319 0.325846 6.9515 0.501628 7.20215 0.729492C7.45605 0.954102 7.63509 1.21615 7.73926 1.51562C7.84342 1.81185 7.89551 2.13086 7.89551 2.47266V3.4834C7.89551 3.71777 7.93132 3.92285 8.00293 4.09863C8.07454 4.27116 8.18522 4.40462 8.33496 4.49902C8.48796 4.59342 8.68652 4.64062 8.93066 4.64062V5.19238C8.47168 5.19238 8.09896 5.11914 7.8125 4.97266C7.52604 4.82292 7.31608 4.61947 7.18262 4.3623C7.05241 4.10189 6.9873 3.80892 6.9873 3.4834V2.47266C6.9873 2.20573 6.95638 1.95833 6.89453 1.73047C6.83268 1.49935 6.72689 1.30078 6.57715 1.13477C6.43066 0.965495 6.22721 0.840169 5.9668 0.758789ZM6.15723 9.78711L5.9668 9.22559C6.22396 9.14421 6.42578 9.01888 6.57227 8.84961C6.72201 8.68359 6.8278 8.48665 6.88965 8.25879C6.95475 8.03092 6.9873 7.78353 6.9873 7.5166V6.51074C6.9873 6.18197 7.05241 5.889 7.18262 5.63184C7.31608 5.37467 7.52604 5.17285 7.8125 5.02637C8.09896 4.87663 8.47168 4.80176 8.93066 4.80176V5.34863C8.56608 5.34863 8.30241 5.45443 8.13965 5.66602C7.97689 5.87435 7.89551 6.15592 7.89551 6.51074V7.5166C7.89551 7.8584 7.84342 8.17741 7.73926 8.47363C7.63509 8.77311 7.45605 9.03516 7.20215 9.25977C6.9515 9.48438 6.60319 9.66016 6.15723 9.78711Z" fill="black"/>
</svg>
