<svg width="15" height="14" viewBox="0 0 15 14" fill="none" xmlns="http://www.w3.org/2000/svg">
<path d="M14.0677 0.00100028C13.9021 0.00826526 13.741 0.0543536 13.5956 0.112563C13.4517 0.170383 12.6234 0.523925 11.4002 1.0469C10.177 1.56987 8.58695 2.2509 7.01075 2.9262C3.85836 4.2768 0.760596 5.60569 0.760596 5.60569L0.783174 5.59705C0.783174 5.59705 0.596208 5.65955 0.406651 5.79163C0.311872 5.85766 0.209905 5.94292 0.126416 6.06721C0.0429272 6.1915 -0.0181087 6.36766 0.0048928 6.55397C0.0856846 7.20838 0.763916 7.39401 0.763916 7.39401L0.766572 7.39534L3.79337 8.43127C3.87054 8.68872 4.71141 11.4952 4.89638 12.0896C4.99853 12.4182 5.09414 12.6077 5.19388 12.7371C5.24378 12.8018 5.29609 12.8518 5.35392 12.8885C5.37689 12.903 5.40106 12.9139 5.42497 12.9237C5.42548 12.9239 5.42579 12.9234 5.4263 12.9237C5.42924 12.925 5.432 12.9251 5.43493 12.9263L5.4263 12.9237C5.43185 12.9259 5.438 12.9303 5.44356 12.9323C5.45435 12.9361 5.46097 12.9359 5.47478 12.9389C5.82142 13.06 6.10829 12.8353 6.10829 12.8353L6.12024 12.826L7.97962 11.1015L10.9971 13.4542L11.035 13.4715C11.5631 13.706 12.0408 13.5752 12.3053 13.3599C12.5698 13.1447 12.6739 12.8672 12.6739 12.8672L12.6852 12.838L14.9025 1.28131C14.9592 1.02276 14.9673 0.799277 14.9138 0.597328C14.8603 0.395379 14.7302 0.219827 14.5671 0.122524C14.404 0.0252204 14.2333 -0.00626471 14.0677 0.00100028ZM14.0857 0.692289C14.1529 0.689175 14.2028 0.696863 14.2185 0.706235C14.2342 0.715606 14.2413 0.714373 14.2563 0.771313C14.2714 0.828253 14.2796 0.948183 14.2384 1.13588L14.2371 1.13987L13.1347 6.88467L12.0324 12.6295C12.0272 12.641 11.9812 12.7473 11.8763 12.8327C11.7693 12.9198 11.6503 12.9877 11.3345 12.8553L8.03474 10.282L7.94177 10.209L7.93977 10.211L6.95298 9.47053L12.4986 2.94612C12.5412 2.89611 12.5684 2.83484 12.5769 2.7697C12.5854 2.70455 12.5749 2.63834 12.5466 2.57905C12.5183 2.51977 12.4734 2.46995 12.4174 2.43563C12.3614 2.40131 12.2966 2.38395 12.2309 2.38565C12.1668 2.38732 12.1044 2.40712 12.051 2.44276L4.02645 7.79245L0.99501 6.75452C0.99501 6.75452 0.693989 6.587 0.67958 6.4703C0.678781 6.46383 0.675227 6.46968 0.690869 6.44639C0.706512 6.4231 0.745831 6.38379 0.795127 6.34944C0.89372 6.28074 1.0063 6.2392 1.0063 6.2392L1.01759 6.23522L1.02888 6.23057C1.02888 6.23057 4.1268 4.90161 7.27903 3.55108C8.85515 2.87581 10.4449 2.19529 11.6678 1.67245C12.8904 1.14974 13.7738 0.773493 13.8486 0.743422C13.9338 0.709321 14.0184 0.695404 14.0857 0.692289ZM10.4081 4.35526L6.20259 9.30319L6.2006 9.30518C6.19403 9.31308 6.18783 9.32128 6.182 9.32975C6.17533 9.33895 6.16913 9.34848 6.16341 9.3583C6.13978 9.39841 6.12464 9.44293 6.11892 9.48913C6.11891 9.49001 6.11891 9.4909 6.11892 9.49178L5.57106 11.9555C5.56196 11.9288 5.55558 11.9191 5.54583 11.8877C5.37182 11.3286 4.57848 8.68112 4.46872 8.31506L10.4081 4.35526ZM6.67739 10.114L7.4331 10.6811L6.32278 11.7104L6.67739 10.114Z" fill="black"/>
</svg>
