<svg width="17" height="17" viewBox="0 0 17 17" fill="none" xmlns="http://www.w3.org/2000/svg">
<path d="M12.7123 2.62977L11.9472 3.39491C11.8415 3.50056 11.8415 3.67186 11.9472 3.77747C12 3.83027 12.0693 3.85671 12.1385 3.85671C12.2077 3.85671 12.2769 3.83031 12.3298 3.77747L13.0949 3.01233C13.2006 2.90668 13.2006 2.73538 13.0949 2.62977C12.9892 2.52413 12.8179 2.52413 12.7123 2.62977Z" fill="black"/>
<path d="M13.2225 5.0526C13.2754 5.1054 13.3446 5.13184 13.4138 5.13184C13.483 5.13184 13.5523 5.10544 13.6051 5.0526L14.3703 4.28747C14.4759 4.18182 14.4759 4.01053 14.3703 3.90492C14.2646 3.79927 14.0933 3.79927 13.9877 3.90492L13.2226 4.67005C13.1169 4.7757 13.1169 4.94695 13.2225 5.0526Z" fill="black"/>
<path d="M17 4.09624C17 4.0245 16.9715 3.95568 16.9208 3.90497L13.095 0.0792354C12.9893 -0.0264118 12.8181 -0.0264118 12.7124 0.0792354L9.58809 3.20356L9.26927 2.88475C9.16359 2.7791 8.99233 2.7791 8.88668 2.88475L1.13018 10.6412C0.438261 11.3332 0.0268181 12.3003 0.00131701 13.2947C-0.0249776 14.32 0.343219 15.2673 1.03795 15.962C1.70729 16.6313 2.61909 16.9999 3.6054 16.9999C4.63688 16.9999 5.64051 16.588 6.35872 15.8698L14.1152 8.11329C14.1659 8.06258 14.1944 7.99376 14.1944 7.92201C14.1944 7.85027 14.1659 7.78145 14.1152 7.73074L13.7964 7.41192L16.9207 4.28756C16.9715 4.23681 17 4.16802 17 4.09624ZM5.97614 15.4872C5.35863 16.1047 4.49455 16.4589 3.6054 16.4589C2.76362 16.4589 1.98766 16.1466 1.42054 15.5794C0.831706 14.9906 0.519742 14.1841 0.542177 13.3086C0.564107 12.4515 0.917876 11.6187 1.51277 11.0238L9.07796 3.45865L9.39677 3.77746C9.39681 3.7775 13.5414 7.92201 13.5414 7.92201L5.97614 15.4872ZM13.4138 7.02933L9.97067 3.58619L12.9037 0.653099L16.3469 4.09624L13.4138 7.02933Z" fill="black"/>
<path d="M9.77942 5.4352C9.72867 5.38445 9.65989 5.35596 9.58811 5.35596C9.51633 5.35596 9.44758 5.38449 9.39683 5.4352C9.39683 5.4352 2.59943 12.2326 2.56834 12.2637C1.9707 12.8614 1.9707 13.8339 2.56837 14.4316C2.86717 14.7304 3.25964 14.8798 3.65222 14.8798C4.04487 14.8798 4.43756 14.7303 4.73661 14.4313C4.74678 14.4211 4.99133 14.1766 4.99133 14.1766L4.60874 13.794C4.60874 13.794 4.36358 14.0392 4.35377 14.0491C3.967 14.4358 3.33773 14.4358 2.95096 14.0491C2.56419 13.6623 2.56419 13.033 2.951 12.6462C2.97376 12.6235 6.61217 8.98504 8.56796 7.02925L9.97073 8.43202L5.37391 13.0289C5.26827 13.1345 5.26827 13.3058 5.37391 13.4114C5.4796 13.5171 5.65086 13.5171 5.7565 13.4114L11.5648 7.60311C11.6704 7.49746 11.6704 7.32617 11.5648 7.22056L9.77942 5.4352ZM10.3533 8.04943L8.95055 6.64666L9.58814 6.00906L10.9909 7.41184L10.3533 8.04943Z" fill="black"/>
</svg>
