<svg width="13" height="17" viewBox="0 0 13 17" fill="none" xmlns="http://www.w3.org/2000/svg">
<path d="M10.0985 3.71615V5.8286H10.8964V6.39484C10.8964 7.00043 10.4038 7.4931 9.79819 7.4931H8.44161C7.8246 7.4931 7.27021 7.7652 6.89119 8.19531V3.07836H8.4102L6.633 0L4.85574 3.07836H6.37472V10.3232C5.99567 9.89308 5.44131 9.62095 4.8243 9.62095H3.46779C2.8622 9.62095 2.36953 9.12829 2.36953 8.52269V7.66493C2.97535 7.54447 3.43349 7.0089 3.43349 6.36821C3.43349 5.63914 2.84035 5.04597 2.11128 5.04597C1.3822 5.04597 0.789062 5.63911 0.789062 6.36821C0.789062 7.0089 1.24717 7.54447 1.85302 7.66493V8.52269C1.85302 9.41307 2.57741 10.1375 3.46782 10.1375H4.82433C5.67925 10.1375 6.37475 10.833 6.37475 11.6879V13.8448C5.62147 13.9686 5.04483 14.624 5.04483 15.4118C5.04483 16.2875 5.75727 17 6.63304 17C7.5088 17 8.22127 16.2875 8.22127 15.4118C8.22127 14.624 7.6446 13.9687 6.89132 13.8448V9.56009C6.89132 8.70518 7.58683 8.00967 8.44174 8.00967H9.79832C10.6887 8.00967 11.4131 7.28528 11.4131 6.39488V5.82863H12.2111V3.71615H10.0985ZM2.11121 7.17392C1.66695 7.17392 1.30554 6.8125 1.30554 6.36825C1.30554 5.92399 1.66695 5.56258 2.11121 5.56258C2.55547 5.56258 2.91688 5.92399 2.91688 6.36825C2.91688 6.8125 2.55547 7.17392 2.11121 7.17392ZM5.75043 2.56182L6.633 1.03315L7.51561 2.56182H5.75043ZM7.70467 15.4118C7.70467 16.0027 7.22392 16.4834 6.633 16.4834C6.04209 16.4834 5.56138 16.0027 5.56138 15.4118C5.56138 14.8209 6.04209 14.3401 6.633 14.3401C7.22392 14.3401 7.70467 14.8209 7.70467 15.4118ZM11.6944 5.31202H10.6151V4.23269H11.6944V5.31202Z" fill="black"/>
</svg>
