<svg width="27" height="27" viewBox="0 0 27 27" fill="none" xmlns="http://www.w3.org/2000/svg">
<path d="M21.2074 8.24125C21.3827 8.12167 21.4284 7.88215 21.302 7.71175C20.4349 6.54293 19.3151 5.58248 18.0244 4.90316C16.6201 4.16414 15.0563 3.78034 13.4694 3.78534C11.8826 3.79033 10.3212 4.18395 8.92163 4.9318C7.63515 5.61922 6.52146 6.5867 5.66171 7.76096C5.53637 7.93214 5.58363 8.17138 5.75963 8.28985C5.93564 8.40832 6.1737 8.36113 6.29962 8.19037C7.0889 7.12002 8.10795 6.23772 9.28372 5.60945C10.5726 4.92075 12.0105 4.55825 13.4719 4.55366C14.9332 4.54906 16.3734 4.9025 17.6665 5.58307C18.8463 6.20394 19.8708 7.0798 20.6668 8.14517C20.7938 8.31513 21.0322 8.36083 21.2074 8.24125Z" fill="black"/>
<path d="M18.1355 11.3569C18.2786 11.2592 18.3162 11.0634 18.2107 10.926C17.7027 10.2643 17.052 9.72236 16.3025 9.33896C15.4593 8.90757 14.5167 8.69003 13.5573 8.70536C12.5978 8.7207 11.6507 8.96844 10.7987 9.42693C10.0387 9.83589 9.37504 10.4014 8.85307 11.0829C8.74881 11.219 8.78723 11.4129 8.93037 11.5073C9.06968 11.5991 9.25618 11.5619 9.35817 11.4299C9.82287 10.8281 10.4115 10.3285 11.0847 9.96621C11.8465 9.55627 12.6933 9.33476 13.5512 9.32105C14.4091 9.30734 15.2518 9.50184 16.0058 9.88755C16.6659 10.2253 17.2404 10.7005 17.6915 11.2802C17.7979 11.417 17.9924 11.4545 18.1355 11.3569Z" fill="black"/>
<circle cx="13.5018" cy="14.4879" r="1.39656" fill="white" stroke="black" stroke-width="0.5"/>
</svg>
